<?xml version="1.0" encoding="UTF-8" standalone="no"?>
<!-- Created with Inkscape (http://www.inkscape.org/) -->

<svg
   version="1.1"
   id="svg1"
   width="103.32121"
   height="103.99999"
   viewBox="0 0 103.32121 103.99999"
   sodipodi:docname="icons8-cafe-100.png"
   xmlns:inkscape="http://www.inkscape.org/namespaces/inkscape"
   xmlns:sodipodi="http://sodipodi.sourceforge.net/DTD/sodipodi-0.dtd"
   xmlns="http://www.w3.org/2000/svg"
   xmlns:svg="http://www.w3.org/2000/svg">
  <defs
     id="defs1" />
  <sodipodi:namedview
     id="namedview1"
     pagecolor="#505050"
     bordercolor="#eeeeee"
     borderopacity="1"
     inkscape:showpageshadow="0"
     inkscape:pageopacity="0"
     inkscape:pagecheckerboard="0"
     inkscape:deskcolor="#505050" />
  <g
     inkscape:groupmode="layer"
     inkscape:label="Image"
     id="g1"
     transform="translate(-9.2889556,-12.069657)">
    <path
       style="fill:#ffb380"
       d="m 25.630829,114.62014 c -1.374028,-2.22322 1.716279,-4.77268 3.555625,-2.93333 1.538566,1.53857 0.575628,4.38284 -1.483824,4.38284 -0.646775,0 -1.579085,-0.65228 -2.071801,-1.44951 z m 8.635903,-25.114591 c -5.730357,-5.730354 -5.174475,-8.102561 1.898684,-8.102561 5.79612,0 5.79612,0 2.461888,-6.737259 -2.32282,-4.693566 -3.527531,-9.749262 -3.971463,-16.666666 l -0.63723,-9.929407 h 26.175342 c 26.175341,0 26.175341,0 26.175341,4 0,3.548672 0.44786,3.999999 3.969263,3.999999 2.702159,0 4.628841,1.006645 6.035421,3.153361 3.36823,5.140558 0.7016,9.698946 -8.005834,13.68534 -4.040566,1.849832 -7.964376,4.517874 -8.719578,5.928982 -1.27057,2.374081 -0.871814,2.56565 5.340484,2.56565 3.692467,0 6.713578,0.579122 6.713578,1.286938 0,0.707816 -1.862156,3.407816 -4.138123,6 -4.138123,4.713063 -4.138123,4.713063 -26.76923,4.713063 -22.631107,0 -22.631107,0 -26.528543,-3.89744 z M 89.062648,70.055854 c 7.49909,-3.877928 8.33396,-11.319532 1.269935,-11.319532 -3.164566,0 -3.88784,0.677874 -4.623557,4.333333 -0.479683,2.383333 -1.167788,5.383333 -1.529124,6.666667 -0.803191,2.85264 -0.104201,2.898383 4.882746,0.319532 z M 21.035964,86.736321 c 0,-0.733333 0.6,-1.333333 1.333333,-1.333333 0.733333,0 1.333333,0.6 1.333333,1.333333 0,0.733333 -0.6,1.333333 -1.333333,1.333333 -0.733333,0 -1.333333,-0.6 -1.333333,-1.333333 z M 60.591518,44.5141 c -0.488889,-0.488889 -0.888889,-2.549829 -0.888889,-4.579867 0,-4.620977 2.750069,-11.831039 3.618317,-9.486414 0.348585,0.941323 0.03961,2.441323 -0.686615,3.333334 -0.726224,0.89201 -1.111633,3.871836 -0.856466,6.621836 0.477632,5.147553 0.337097,5.634556 -1.186347,4.111111 z m -9.502029,-2.211205 c -0.610875,-1.373463 -0.422669,-4.635133 0.432079,-7.488025 0.832917,-2.78003 1.514394,-6.454987 1.514394,-8.166573 0,-2.337823 0.379875,-2.732099 1.527042,-1.584932 1.139454,1.139454 1.147421,2.983852 0.03139,7.266666 -0.822608,3.156794 -1.704212,7.239625 -1.959121,9.072958 -0.405194,2.914208 -0.599558,3.02736 -1.545786,0.899906 z m 16.706853,-1.899906 c 0.08304,-3.249125 0.224204,-3.363 1.23962,-1 1.564952,3.64184 1.564952,4.666667 0,4.666667 -0.733333,0 -1.291162,-1.65 -1.23962,-3.666667 z M 9.6308295,37.286813 c -1.37403,-2.223225 1.7162795,-4.772679 3.5556245,-2.933333 1.538566,1.538566 0.575629,4.382843 -1.483823,4.382843 -0.646775,0 -1.579082,-0.65228 -2.0718015,-1.44951 z M 69.558878,30.411129 c 0.144979,-6.379245 1.193226,-8.075009 2.648053,-4.283792 0.434283,1.131725 -0.01621,3.981724 -1.001099,6.333333 -1.790705,4.275653 -1.790705,4.275653 -1.646954,-2.049541 z m 38.738612,0.209018 c -1.37402,-2.223225 1.71628,-4.772679 3.55563,-2.933334 1.53857,1.538567 0.57563,4.382843 -1.48382,4.382843 -0.64678,0 -1.57909,-0.652279 -2.07181,-1.449509 z M 61.813228,26.915276 c -0.574362,-0.929336 -0.684213,-2.049784 -0.244113,-2.489883 1.193281,-1.193281 2.494356,0.561736 1.849849,2.495258 -0.451633,1.3549 -0.76569,1.353849 -1.605736,-0.0054 z m 39.984642,-6.274191 c -1.15238,-1.152381 -2.095242,-2.609523 -2.095242,-3.238095 0,-1.48119 3.852142,-5.333333 5.333332,-5.333333 1.48119,0 5.33334,3.852143 5.33334,5.333333 0,1.481191 -3.85215,5.333333 -5.33334,5.333333 -0.62857,0 -2.08571,-0.942857 -3.23809,-2.095238 z"
       id="path1" />
  </g>
</svg>
